<svg xmlns="http://www.w3.org/2000/svg" viewBox="0 0 512 512">
  <defs>
    <linearGradient id="goldF" x1="0" y1="0" x2="1" y2="1">
      <stop offset="0" stop-color="#d4a017"/>
      <stop offset="1" stop-color="#b8860b"/>
    </linearGradient>
  </defs>
  <rect width="512" height="512" rx="115" fill="url(#goldF)"/>
  <g fill="#ffffff" transform="translate(0,-16) scale(1.02)">
    <path d="M118 128 h78 c62 0 106 42 106 108 s-44 108 -106 108 h-78 z
             M168 172 v128 h26 c34 0 56 -24 56 -64 s-22 -64 -56 -64 z"/>
    <path d="M394 128 h-78 c-62 0 -106 42 -106 108 s44 108 106 108 h78 z
             M344 172 v128 h-26 c-34 0 -56 -24 -56 -64 s22 -64 56 -64 z"/>
  </g>
</svg>
