<svg xmlns="http://www.w3.org/2000/svg" viewBox="0 0 800 450" width="800" height="450">
  <defs>
    <linearGradient id="bg" x1="0" y1="0" x2="1" y2="1">
      <stop offset="0" stop-color="#0f172a"/>
      <stop offset="1" stop-color="#1e2a44"/>
    </linearGradient>
  </defs>
  <rect width="800" height="450" fill="url(#bg)"/>
  <circle cx="680" cy="90" r="170" fill="#d4a53f" opacity="0.08"/>
  <circle cx="100" cy="400" r="150" fill="#3b82f6" opacity="0.07"/>
  <circle cx="660" cy="130" r="44" fill="#d4a53f"/>
  <path d="M660 152 L660 112 L640 132 M660 112 L680 132" stroke="#0f172a" stroke-width="11" fill="none" stroke-linecap="round" stroke-linejoin="round"/>
  <rect x="90" y="352" width="640" height="4" rx="2" fill="#ffffff" opacity="0.18"/>
  <path d="M130 352 L130 280 Q130 262 148 262 L205 262 L245 202 L505 202 L552 262 L638 262 Q656 262 656 280 L656 352 Z" fill="#e8edf5"/>
  <rect x="262" y="214" width="70" height="40" rx="8" fill="#0f172a"/>
  <rect x="350" y="214" width="130" height="40" rx="8" fill="#0f172a"/>
  <circle cx="215" cy="356" r="27" fill="#0b1220"/>
  <circle cx="215" cy="356" r="11" fill="#d4a53f"/>
  <circle cx="570" cy="356" r="27" fill="#0b1220"/>
  <circle cx="570" cy="356" r="11" fill="#d4a53f"/>
</svg>
